<?xml version="1.0" encoding="UTF-8"?>
<svg width="27px" height="27px" viewBox="0 0 27 27" version="1.1" xmlns="http://www.w3.org/2000/svg" xmlns:xlink="http://www.w3.org/1999/xlink">
    <!-- Generator: Sketch 44.1 (41455) - http://www.bohemiancoding.com/sketch -->
    <title>Icon / Gear / Grey</title>
    <desc>Created with Sketch.</desc>
    <defs></defs>
    <g id="Symbols" stroke="none" stroke-width="1" fill="none" fill-rule="evenodd">
        <g id="Icon-/-Gear-/-Grey" fill-rule="nonzero" fill="#B0B0B0">
            <g id="Shape">
                <path d="M26.3797889,10.761279 L22.8709744,10.5845857 C22.6942592,10.0154265 22.4648708,9.46496972 22.186211,8.93656423 L24.5429943,6.32863587 C24.7757843,6.07039177 24.7655881,5.67453347 24.5192059,5.42988116 L21.5677024,2.48048342 C21.3230198,2.23583112 20.9270906,2.22393993 20.6688362,2.45839687 L18.0605844,4.81319163 C17.5355498,4.53625827 16.9849813,4.30688096 16.415795,4.12851312 L16.237379,0.620133795 C16.2203869,0.273540852 15.9332243,0 15.5865884,0 L11.4116716,0 C11.0633393,0 10.7778892,0.271835897 10.7608811,0.618437539 L10.5807685,4.12681687 C10.0115388,4.3052108 9.46271019,4.53457071 8.9376756,4.81149538 L6.32772734,2.45670061 C6.06945121,2.22393949 5.67524027,2.23413442 5.42886116,2.48048603 L2.47909763,5.42988377 C2.23441498,5.67453608 2.22252232,6.07041613 2.45530882,6.32863848 L4.81039564,8.93995935 C4.53173146,9.4700611 4.30402218,10.0205179 4.12732868,10.5828485 L0.618514238,10.7629387 C0.27187831,10.7799287 0,11.0670557 0,11.4136486 L0,15.5880476 C0,15.9363368 0.27186961,16.2217515 0.618514238,16.2387575 L4.12732868,16.4188477 C4.30404392,16.9846143 4.53343228,17.5350712 4.81039564,18.0634332 L2.45530882,20.6730578 C2.22251884,20.9313019 2.23271504,21.3254639 2.47909763,21.5718125 L5.42886116,24.5212102 C5.67524462,24.7658625 6.06947296,24.7777537 6.32772734,24.5449956 L8.93937206,22.1902009 C9.46953955,22.4688305 10.0200646,22.6982078 10.5841615,22.8731831 L10.764274,26.3815625 C10.7812656,26.7281511 11.0684287,27 11.4150646,27 L15.5899813,27 C15.9383137,27 16.2237638,26.7281641 16.2407719,26.3798662 L16.419188,22.8731831 C16.9833283,22.6981904 17.5338534,22.4688261 18.0639774,22.1902009 L20.6722292,24.5432994 C20.9305053,24.7760605 21.3247162,24.7658656 21.5710953,24.519514 L24.5225988,21.5701162 C24.7672815,21.3254639 24.7791741,20.9295839 24.5463876,20.6713615 L22.1913008,18.0634332 C22.4716658,17.5333314 22.6993708,16.9828746 22.8743678,16.417108 L26.3814858,16.2370178 C26.7281173,16.2200278 27,15.9329008 27,15.5863079 L27,11.4119089 C26.9983009,11.0653159 26.7264296,10.778205 26.3797893,10.761199 L26.3797889,10.761279 Z M25.693329,14.9662541 L22.3374575,15.13785 C22.0519944,15.1514418 21.80903,15.3519218 21.7376479,15.6288509 C21.5439419,16.3899914 21.2381038,17.1273408 20.8268629,17.8205441 C20.6807319,18.066897 20.713017,18.3777859 20.9050265,18.5901659 L23.1581514,21.0859674 L21.0851565,23.1604015 L18.5890455,20.9092523 C18.3783443,20.7172666 18.0657073,20.6866861 17.8210247,20.8310984 C17.126039,21.2405528 16.3885981,21.546353 15.6273632,21.7417704 C15.3503955,21.8131262 15.1515696,22.0560823 15.1379979,22.3415056 L14.9663807,25.6969609 L12.0318854,25.6969609 L11.8602683,22.3415056 C11.8466748,22.0560779 11.6478707,21.8131436 11.370903,21.7434666 C10.609668,21.548084 9.87222716,21.2422882 9.17724144,20.8327946 C8.93255879,20.6883824 8.62162696,20.7189628 8.40922067,20.9109485 L5.91310965,23.163794 L3.83841828,21.0910561 L6.09154311,18.5952546 C6.28185184,18.3845797 6.3141369,18.0719814 6.16970671,17.8256329 C5.7619023,17.1341693 5.45605986,16.3967764 5.25892177,15.6305471 C5.18755708,15.3536138 4.9445709,15.1548125 4.66080863,15.1412425 L1.30493716,14.9696466 L1.30493716,12.0355152 L4.66080863,11.8639193 C4.9445709,11.8503275 5.18753968,11.6515481 5.25892177,11.376311 C5.4543286,10.6151705 5.7618588,9.87782103 6.17140318,9.18122524 C6.31583337,8.93657293 6.28524912,8.62567965 6.09323958,8.4132997 L3.84011475,5.91580196 L5.91310965,3.84306412 L8.41091713,6.09760581 C8.62331472,6.28959154 8.93595172,6.32017199 9.18063437,6.17405911 C9.86370133,5.76800587 10.6011422,5.46050075 11.3725994,5.2599946 C11.6478663,5.18863876 11.8449566,4.94568271 11.8602683,4.66195562 L12.0335862,1.3065003 L14.9680815,1.3065003 L15.1396987,4.66195562 C15.1532922,4.94568271 15.3520963,5.18862136 15.6273675,5.2599946 C16.4021742,5.46217091 17.1396585,5.76969778 17.821029,6.17405911 C18.0674125,6.32017199 18.38008,6.28958719 18.5907463,6.09760581 L21.0868573,3.84306412 L23.1615487,5.91580196 L20.9067274,8.41160344 C20.7147178,8.6239747 20.6841336,8.93487667 20.8285638,9.18122524 C21.2346674,9.8676 21.5422106,10.6066457 21.7410452,11.3780072 C21.8124099,11.6549406 22.055396,11.8520021 22.3391583,11.8656156 L25.6950298,12.0355109 L25.693329,14.9662541 Z M13.4983457,7.84241387 C10.3786311,7.84241387 7.8399779,10.3806652 7.8399779,13.50008 C7.8399779,16.6194948 10.3785441,19.1577462 13.4983457,19.1577462 C16.6181474,19.1577462 19.1567136,16.6194948 19.1567136,13.50008 C19.1567136,10.3806652 16.6181474,7.84241387 13.4983457,7.84241387 Z M13.4983457,17.8529339 C11.0974108,17.8529339 9.14495203,15.9008042 9.14495203,13.50008 C9.14495203,11.0993559 11.0973238,9.14722618 13.4983457,9.14722618 C15.8993676,9.14722618 17.8517394,11.0993559 17.8517394,13.50008 C17.8517394,15.9008042 15.8993676,17.8529339 13.4983457,17.8529339 Z"></path>
            </g>
        </g>
    </g>
</svg>