<?xml version="1.0" encoding="UTF-8"?>
<svg width="18px" height="18px" viewBox="0 0 18 18" version="1.1" xmlns="http://www.w3.org/2000/svg" xmlns:xlink="http://www.w3.org/1999/xlink">
    <!-- Generator: Sketch 44.1 (41455) - http://www.bohemiancoding.com/sketch -->
    <title>Icon / Refresh / White</title>
    <desc>Created with Sketch.</desc>
    <defs></defs>
    <g id="Symbols" stroke="none" stroke-width="1" fill="none" fill-rule="evenodd">
        <g id="Icon-/-Refresh-/-White" fill-rule="nonzero" fill="#FFFFFF">
            <g id="Shape">
                <path d="M5.40640012,5.64080012 L0.645600014,5.64080012 L0.645600014,0.880000019 L2.24560005,0.880000019 L2.24560005,2.90812006 L2.57684806,2.57687206 C6.00808813,-0.854368019 11.5908483,-0.854368019 15.0220483,2.57687206 C16.6845284,4.23935209 17.6001684,6.45031214 17.6001684,8.80047219 L16.0001683,8.80047219 C16.0001683,6.87703215 15.2517283,5.06923211 13.8923683,3.70967208 C11.0845682,0.901872019 6.51716814,0.90343202 3.70956808,3.70967208 L3.37831607,4.04092009 L5.40643612,4.04092009 L5.40640012,5.64080012 Z M12.1940003,13.5596003 L14.2221203,13.5596003 L13.8908683,13.8908483 C11.0830682,16.6986484 6.51566814,16.6986484 3.70806808,13.8908483 C2.34870805,12.5314883 1.60026803,10.7236482 1.60026803,8.80004819 L0.000268,8.80004819 C0.000268,11.1500482 0.91590802,13.3608483 2.57838806,15.0236483 C4.29246809,16.7377284 6.54714814,17.5955284 8.80038819,17.5955284 C11.0536282,17.5955284 13.3083883,16.7377284 15.0239883,15.0220883 L15.3552363,14.6908363 L15.3552363,16.7189564 L16.9552364,16.7189564 L16.9552364,11.9597563 L12.1944363,11.9597563 L12.1940003,13.5596003 Z"></path>
            </g>
        </g>
    </g>
</svg>