<?xml version="1.0" encoding="UTF-8" standalone="no"?>
<svg width="82px" height="83px" viewBox="0 0 82 83" version="1.1" xmlns="http://www.w3.org/2000/svg" xmlns:xlink="http://www.w3.org/1999/xlink" xmlns:sketch="http://www.bohemiancoding.com/sketch/ns">
    <!-- Generator: Sketch 3.4 (15588) - http://www.bohemiancoding.com/sketch -->
    <title>Fill 5</title>
    <desc>Created with Sketch.</desc>
    <defs></defs>
    <g id="Page-1" stroke="none" stroke-width="1" fill="none" fill-rule="evenodd" sketch:type="MSPage">
        <g id="login_landingpg" sketch:type="MSArtboardGroup" transform="translate(-148.000000, -42.000000)" fill="#FFFFFF">
            <g id="Page-1" sketch:type="MSLayerGroup">
                <path d="M191.461353,108.246855 C176.864825,108.246855 166.638207,97.574855 166.638207,83.797855 C166.638207,70.087555 177.26688,59.214305 192.066153,59.214305 C199.533371,59.214305 205.521807,61.779955 210.699262,66.170655 L202.494371,76.031905 C200.003007,73.868755 197.247044,71.775755 192.402916,71.775755 C185.808535,71.775755 181.706662,76.435555 181.706662,83.797855 C181.706662,91.159005 185.675662,95.684255 192.402916,95.684255 C196.841553,95.684255 199.937716,93.861505 202.360353,91.429255 L210.970735,100.547605 C205.521807,105.478805 199.533371,108.246855 191.461353,108.246855 L191.461353,108.246855 Z M148.105898,124.591805 L229.505335,124.591805 L229.505335,42.869355 L148.105898,42.869355 L148.105898,124.591805 Z" id="Fill-5" sketch:type="MSShapeGroup"></path>
            </g>
        </g>
    </g>
</svg>