<?xml version="1.0" encoding="UTF-8" standalone="no"?>
<svg width="43px" height="38px" viewBox="0 0 43 38" version="1.1" xmlns="http://www.w3.org/2000/svg" xmlns:xlink="http://www.w3.org/1999/xlink" xmlns:sketch="http://www.bohemiancoding.com/sketch/ns">
    <!-- Generator: Sketch 3.4.1 (15681) - http://www.bohemiancoding.com/sketch -->
    <title>Fill 47</title>
    <desc>Created with Sketch.</desc>
    <defs></defs>
    <g id="Page-1" stroke="none" stroke-width="1" fill="none" fill-rule="evenodd" sketch:type="MSPage">
        <g id="Top-Nav-Copy" sketch:type="MSLayerGroup" transform="translate(-174.000000, -19.000000)" fill="#FFFFFF">
            <g id="Top-Nav-Contents" sketch:type="MSShapeGroup">
                <path d="M186.965267,27.5539194 L192.985843,20.9919839 C193.382264,20.5900484 193.382264,19.9397258 192.985843,19.5366613 C192.589422,19.1347258 191.949664,19.1347258 191.554385,19.5366613 L183.294658,28.6039194 L191.427576,37.7344032 C191.625216,37.935371 191.883404,38.0347258 192.142734,38.0347258 C192.402064,38.0347258 192.661395,37.9342419 192.857892,37.7344032 C193.25317,37.3324677 193.25317,36.6821452 192.857892,36.2802097 L186.899007,29.6110161 L207.09821,29.6110161 C207.656855,29.6110161 208.110398,29.1492419 208.110398,28.5813387 C208.110398,28.0134355 207.656855,27.5539194 207.09821,27.5539194 L186.965267,27.5539194 Z" id="Fill-47"></path>
            </g>
        </g>
    </g>
</svg>