<?xml version="1.0" encoding="UTF-8" standalone="no"?>
<svg width="40px" height="43px" viewBox="0 0 40 43" version="1.1" xmlns="http://www.w3.org/2000/svg" xmlns:xlink="http://www.w3.org/1999/xlink" xmlns:sketch="http://www.bohemiancoding.com/sketch/ns">
    <!-- Generator: Sketch 3.4.1 (15681) - http://www.bohemiancoding.com/sketch -->
    <title>Group</title>
    <desc>Created with Sketch.</desc>
    <defs></defs>
    <g id="Page-1" stroke="none" stroke-width="1" fill="none" fill-rule="evenodd" sketch:type="MSPage">
        <g id="Top-Nav-Copy" sketch:type="MSLayerGroup" transform="translate(-313.000000, -18.000000)" fill="#FFFFFF">
            <g id="Group" transform="translate(322.000000, 17.000000)" sketch:type="MSShapeGroup">
                <path d="M21.1382027,4.76096774 C21.1382027,4.72822581 21.1382027,4.72822581 21.1062148,4.69548387 C21.1062148,4.66274194 21.074227,4.66274194 21.074227,4.63 C21.074227,4.63 21.074227,4.59725806 21.0422391,4.59725806 C21.0102512,4.56451613 20.9782633,4.53177419 20.9439906,4.49677419 L17.7017906,1.18532258 C17.4413179,0.92 17.0528936,0.92 16.7924209,1.18532258 C16.5319482,1.45177419 16.5319482,1.84806452 16.7924209,2.1133871 L18.9321815,4.29919355 L4.27716333,4.29919355 C2.13740273,4.29693548 0.416911818,6.05258065 0.416911818,8.2383871 L0.416911818,9.92629032 C0.416911818,10.2898387 0.709372424,10.5890323 1.06580879,10.5890323 C1.42224515,10.5890323 1.71470576,10.2898387 1.71470576,9.92629032 L1.71470576,8.2383871 C1.71470576,6.81354839 2.84913303,5.62129032 4.27716333,5.62129032 L18.9664542,5.62129032 L16.8266936,7.80709677 C16.5662209,8.07241935 16.5662209,8.46870968 16.8266936,8.73516129 C16.9546452,8.86725806 17.1168694,8.93274194 17.2790936,8.93274194 C17.4413179,8.93274194 17.6035421,8.86725806 17.7337785,8.73516129 L20.9759785,5.42370968 C21.0079664,5.39096774 21.0399542,5.35709677 21.074227,5.32322581 L21.1062148,5.29048387 C21.1062148,5.25774194 21.1382027,5.25774194 21.1382027,5.225 C21.1382027,5.19225806 21.1382027,5.19225806 21.1701906,5.15951613 C21.1701906,5.12677419 21.1701906,5.12677419 21.2021785,5.09403226 C21.2341664,4.99354839 21.2341664,4.92806452 21.2021785,4.82758065 C21.1382027,4.79370968 21.1382027,4.79370968 21.1382027,4.76096774" id="Fill-4"></path>
                <path d="M20.5217506,15.0047903 C20.1653142,15.0047903 19.8728536,15.3028548 19.8728536,15.6675323 L19.8728536,17.3554355 C19.8728536,18.7802742 18.7384264,19.9714032 17.3115385,19.9714032 L2.62339,19.9714032 L4.76315061,17.7867258 C5.02248091,17.5214032 5.02248091,17.1251129 4.76315061,16.8586613 C4.50267788,16.5933387 4.11425364,16.5933387 3.85378091,16.8586613 L0.611580909,20.1701129 C0.57959303,20.2028548 0.547605152,20.2355968 0.514474848,20.2705968 L0.481344545,20.3033387 C0.481344545,20.3360806 0.449356667,20.3360806 0.449356667,20.3688226 C0.449356667,20.4015645 0.449356667,20.4015645 0.417368788,20.4343065 C0.417368788,20.4670484 0.417368788,20.4670484 0.385380909,20.4997903 C0.35339303,20.6002742 0.35339303,20.664629 0.385380909,20.7651129 C0.385380909,20.7978548 0.385380909,20.7978548 0.417368788,20.8305968 C0.417368788,20.8633387 0.417368788,20.8633387 0.449356667,20.8960806 C0.449356667,20.9288226 0.481344545,20.9288226 0.481344545,20.9615645 C0.481344545,20.9615645 0.481344545,20.9943065 0.514474848,20.9943065 C0.546462727,21.0281774 0.578450606,21.0597903 0.611580909,21.0947903 L3.85378091,24.4062419 C3.98401727,24.5428548 4.14624152,24.6083387 4.30846576,24.6083387 C4.47069,24.6083387 4.63291424,24.5428548 4.76315061,24.409629 C5.02248091,24.1443065 5.02248091,23.7468871 4.76315061,23.4815645 L2.62339,21.2968871 L17.3126809,21.2968871 C19.4512991,21.2968871 21.1706476,19.5401129 21.1706476,17.3554355 L21.1706476,15.6675323 C21.1706476,15.3028548 20.878187,15.0047903 20.5217506,15.0047903" id="Fill-6"></path>
                <path d="M14.2144264,14.5935968 L14.506887,14.4592419 L14.506887,14.7652097 L14.2144264,14.8973065 L14.2144264,14.5935968 Z M13.7894445,14.777629 L14.0819052,14.6432742 L14.0819052,14.9492419 L13.7894445,15.0813387 L13.7894445,14.777629 Z M13.3484688,14.9808548 L13.6409294,14.8465 L13.6409294,15.1524677 L13.3484688,15.2856935 L13.3484688,14.9808548 Z M13.3484688,14.4502097 L13.6409294,14.3158548 L13.6409294,14.6218226 L13.3484688,14.7539194 L13.3484688,14.4502097 Z M13.3484688,13.9195645 L13.6409294,13.7852097 L13.6409294,14.0911774 L13.3484688,14.2232742 L13.3484688,13.9195645 Z M13.7894445,14.2469839 L14.0819052,14.112629 L14.0819052,14.4174677 L13.7894445,14.5506935 L13.7894445,14.2469839 Z M13.7894445,13.7163387 L14.0819052,13.5819839 L14.0819052,13.8868226 L13.7894445,14.0200484 L13.7894445,13.7163387 Z M14.2144264,14.0629516 L14.506887,13.9285968 L14.506887,14.2345645 L14.2144264,14.3666613 L14.2144264,14.0629516 Z M14.2144264,13.5323065 L14.506887,13.3979516 L14.506887,13.7027903 L14.2144264,13.8360161 L14.2144264,13.5323065 Z M12.681293,11.4560161 L11.1801476,12.1469839 L11.1801476,11.8523065 L12.681293,11.1613387 L12.681293,11.4560161 Z M12.681293,12.0171452 L11.1801476,12.7081129 L11.1801476,12.4123065 L12.681293,11.7224677 L12.681293,12.0171452 Z M12.681293,12.5771452 L11.1801476,13.2681129 L11.1801476,12.9734355 L12.681293,12.2824677 L12.681293,12.5771452 Z M12.681293,13.1371452 L11.1801476,13.8281129 L11.1801476,13.5334355 L12.681293,12.8424677 L12.681293,13.1371452 Z M12.681293,13.6982742 L11.1801476,14.3881129 L11.1801476,14.0934355 L12.681293,13.4035968 L12.681293,13.6982742 Z M12.681293,14.2582742 L11.1801476,14.9481129 L11.1801476,14.6545645 L12.681293,13.9635968 L12.681293,14.2582742 Z M12.681293,14.8182742 L11.1801476,15.5092419 L11.1801476,15.2145645 L12.681293,14.5235968 L12.681293,14.8182742 Z M12.681293,15.3782742 L11.1801476,16.0692419 L11.1801476,15.7745645 L12.681293,15.0835968 L12.681293,15.3782742 Z M12.681293,15.9394032 L11.1801476,16.6292419 L11.1801476,16.3345645 L12.681293,15.6435968 L12.681293,15.9394032 Z M12.681293,16.3718226 L12.6801506,16.3718226 L12.6801506,16.4869839 L11.1801476,17.1768226 L11.1801476,16.8945645 L12.681293,16.2047258 L12.681293,16.3718226 Z M12.681293,17.0390806 L11.1881445,17.7266613 L11.1881445,17.4523065 L12.681293,16.7658548 L12.681293,17.0390806 Z M10.4992627,9.74553226 L9.14663242,9.12343548 L9.14663242,8.85698387 L10.4992627,9.47908065 L10.4992627,9.74553226 Z M10.4992627,10.2502097 L9.14663242,9.6281129 L9.14663242,9.36166129 L10.4992627,9.9848871 L10.4992627,10.2502097 Z M10.4992627,10.7548871 L9.14663242,10.1327903 L9.14663242,9.86746774 L10.4992627,10.4895645 L10.4992627,10.7548871 Z M10.42729,12.2181129 L8.92614455,11.5282742 L8.92614455,11.2324677 L10.42729,11.9234355 L10.42729,12.2181129 Z M10.42729,12.7781129 L8.92614455,12.0882742 L8.92614455,11.7935968 L10.42729,12.4834355 L10.42729,12.7781129 Z M10.42729,13.3392419 L8.92614455,12.6482742 L8.92614455,12.3535968 L10.42729,13.0445645 L10.42729,13.3392419 Z M10.42729,13.8992419 L8.92614455,13.2082742 L8.92614455,12.9135968 L10.42729,13.6045645 L10.42729,13.8992419 Z M10.42729,14.4592419 L8.92614455,13.7694032 L8.92614455,13.4747258 L10.42729,14.1645645 L10.42729,14.4592419 Z M10.42729,15.0192419 L8.92614455,14.3294032 L8.92614455,14.0347258 L10.42729,14.7245645 L10.42729,15.0192419 Z M10.42729,15.580371 L8.92614455,14.8894032 L8.92614455,14.5947258 L10.42729,15.2856935 L10.42729,15.580371 Z M10.42729,16.140371 L8.92614455,15.4494032 L8.92614455,15.1547258 L10.42729,15.8456935 L10.42729,16.140371 Z M10.42729,16.700371 L8.92614455,16.0105323 L8.92614455,15.7147258 L10.42729,16.4056935 L10.42729,16.700371 Z M10.42729,17.0627903 L10.42729,17.2615 L8.92614455,16.5705323 L8.92614455,16.4056935 L8.92614455,16.2758548 L10.42729,16.9656935 L10.42729,17.0627903 Z M10.4181506,17.8135968 L8.92614455,17.1271452 L8.92614455,16.8358548 L10.4181506,17.5223065 L10.4181506,17.8135968 Z M8.15043848,12.9666613 L7.65119909,12.7397258 L7.65119909,12.2395645 L8.15043848,12.4687581 L8.15043848,12.9666613 Z M8.15043848,13.9635968 L7.65119909,13.7355323 L7.65119909,13.2365 L8.15043848,13.4656935 L8.15043848,13.9635968 Z M8.15043848,14.9323065 L7.65119909,14.705371 L7.65119909,14.2052097 L8.15043848,14.4344032 L8.15043848,14.9323065 Z M8.15043848,15.9292419 L7.65119909,15.7011774 L7.65119909,15.2010161 L8.15043848,15.4313387 L8.15043848,15.9292419 Z M7.47069606,12.6573065 L6.97145667,12.4292419 L6.97145667,11.9268226 L7.47069606,12.1571452 L7.47069606,12.6573065 Z M7.47069606,13.6531129 L6.97145667,13.4261774 L6.97145667,12.9237581 L7.47069606,13.1529516 L7.47069606,13.6531129 Z M7.47069606,14.6229516 L6.97145667,14.3948871 L6.97145667,13.8924677 L7.47069606,14.1216613 L7.47069606,14.6229516 Z M7.47069606,15.6187581 L6.97145667,15.3918226 L6.97145667,14.8894032 L7.47069606,15.1185968 L7.47069606,15.6187581 Z M10.9767961,10.5234355 L12.3294264,9.90020968 L12.3294264,10.1666613 L10.9767961,10.7887581 L10.9767961,10.5234355 Z M10.9767961,10.017629 L12.3294264,9.39553226 L12.3294264,9.66198387 L10.9767961,10.2840806 L10.9767961,10.017629 Z M10.9767961,9.51295161 L12.3294264,8.89085484 L12.3294264,9.15617742 L10.9767961,9.77827419 L10.9767961,9.51295161 Z M13.0160233,11.1895645 L13.0160233,16.0365 L12.923487,16.0805323 L12.923487,10.472629 L10.8248536,11.4469839 L10.8248536,17.0244032 L10.7380294,17.0706935 L10.7380294,11.3916613 L12.9109203,10.3710161 L12.4745142,10.157629 L12.4745142,8.4448871 L10.8168567,9.24424194 L10.8214264,11.0732742 L10.7334597,11.1082742 L10.7334597,9.18553226 L12.4665173,8.35682258 L11.9912688,8.13779032 L11.9912688,7.89504839 L11.6096991,7.71553226 L11.6096991,7.49875806 L10.7380294,7.19279032 L9.90520212,7.53037097 L9.90520212,7.68843548 L9.45622939,7.89166129 L9.45622939,8.13891935 L8.98669303,8.35795161 L8.98669303,10.1666613 L8.55142939,10.3710161 L8.55142939,16.1144032 L8.4623203,16.0748871 L8.4623203,10.3439194 L6.68813545,11.205371 L6.68813545,16.6619839 L10.8020052,18.592629 L14.7879233,16.6947258 L14.7879233,12.0510161 L13.0160233,11.1895645 Z" id="Fill-8"></path>
                <path d="M8.98692152,8.35783871 L10.7336882,9.18541935 L12.4667458,8.35670968 L11.9914973,8.13767742 L11.9914973,8.30364516 L10.7382579,8.91332258 L9.45645788,8.32058065 L9.45645788,8.13993548 L8.98692152,8.35783871 Z" id="Fill-10"></path>
                <path d="M9.45645788,7.8918871 L10.7382579,8.47108065 L11.9914973,7.89527419 L11.6099276,7.71575806 L11.6099276,7.86930645 L10.7268336,8.26785484 L9.90428818,7.90543548 L9.90428818,7.68866129 L9.45645788,7.8918871 Z" id="Fill-12"></path>
                <path d="M9.90474515,7.53003226 L10.7238633,7.89245161 L11.6092421,7.49841935 L10.7375724,7.19358065 L9.90474515,7.53003226 Z" id="Fill-14"></path>
                <path d="M10.7409997,7.28548387 L10.20863,7.49887097 L10.2794603,7.52370968 L10.7409997,7.33967742 L11.2425239,7.51016129 L11.3064997,7.48306452 L10.7409997,7.28548387 Z" id="Fill-16"></path>
                <path d="M6.68847818,11.2052581 L8.46152061,11.9786452 L8.46152061,10.3438065 L6.68847818,11.2052581 Z" id="Fill-18"></path>
                <path d="M13.0164803,11.1893387 L13.0164803,12.7880484 L14.7872379,12.0507903 L13.0164803,11.1893387 Z" id="Fill-20"></path>
                <path d="M7.19388667,11.2390161 L8.24720182,10.7298226 L8.24491697,10.6067581 L7.05908061,11.1814355 L7.19388667,11.2390161 Z" id="Fill-22"></path>
                <path d="M13.2517055,11.5234194 L13.2517055,11.6464839 L14.2284782,12.1150323 L14.3564297,12.0608387 L13.2517055,11.5234194 Z" id="Fill-24"></path>
                <path d="M8.55142939,10.3705645 L8.98669303,10.1244355 L8.98669303,10.2734677 L10.7346021,11.1078226 L12.4756567,10.2949194 L12.4756567,10.1583065 L12.9120627,10.3705645 L10.7391718,11.3912097 L8.55142939,10.3705645 Z" id="Fill-26"></path>
            </g>
        </g>
    </g>
</svg>