<?xml version="1.0" encoding="UTF-8" standalone="no"?>
<svg width="44px" height="41px" viewBox="0 0 44 41" version="1.1" xmlns="http://www.w3.org/2000/svg" xmlns:xlink="http://www.w3.org/1999/xlink" xmlns:sketch="http://www.bohemiancoding.com/sketch/ns">
    <!-- Generator: Sketch 3.4.1 (15681) - http://www.bohemiancoding.com/sketch -->
    <title>Fill 38</title>
    <desc>Created with Sketch.</desc>
    <defs></defs>
    <g id="Page-1" stroke="none" stroke-width="1" fill="none" fill-rule="evenodd" sketch:type="MSPage">
        <g id="Top-Nav-Copy" sketch:type="MSLayerGroup" transform="translate(-242.000000, -19.000000)" fill="#FFFFFF">
            <g id="Top-Nav-Contents" sketch:type="MSShapeGroup">
                <path d="M272.864375,32.6789355 C272.678159,32.8629677 272.424541,32.9657097 272.159499,32.9657097 C271.895599,32.9657097 271.644265,32.8629677 271.455765,32.6789355 L267.819429,29.0829677 C267.432147,28.7002258 267.432147,28.077 267.819429,27.690871 C268.207853,27.308129 268.838472,27.308129 269.228038,27.690871 L271.16559,29.6079677 C271.16559,24.8378065 267.248217,20.9663548 262.430614,20.9663548 C257.613011,20.9663548 253.693353,24.8378065 253.693353,29.5989355 C253.693353,34.3611935 257.614153,38.2326452 262.430614,38.2326452 C264.763444,38.2326452 266.958041,37.3350645 268.608844,35.7047419 C268.996126,35.322 269.626744,35.322 270.014026,35.7047419 C270.401308,36.0886129 270.401308,36.7107097 270.014026,37.0945806 C267.98965,39.0974839 265.296956,40.1982903 262.430614,40.1982903 C256.515141,40.1982903 251.70325,35.4439355 251.70325,29.5989355 C251.70325,23.7550645 256.515141,19.0007097 262.430614,19.0007097 C268.344944,19.0007097 273.15455,23.7550645 273.15455,29.5989355 L275.094387,27.692 C275.482811,27.3092581 276.112287,27.3092581 276.502996,27.692 C276.890278,28.078129 276.890278,28.7002258 276.502996,29.0829677 L272.864375,32.6789355 Z" id="Fill-38"></path>
            </g>
        </g>
    </g>
</svg>