<?xml version="1.0" encoding="utf-8"?>
<!-- Generator: Adobe Illustrator 17.1.0, SVG Export Plug-In . SVG Version: 6.00 Build 0)  -->
<!DOCTYPE svg PUBLIC "-//W3C//DTD SVG 1.1//EN" "http://www.w3.org/Graphics/SVG/1.1/DTD/svg11.dtd">
<svg version="1.1" xmlns="http://www.w3.org/2000/svg" xmlns:xlink="http://www.w3.org/1999/xlink" x="0px" y="0px"
	 viewBox="0 0 27 27" enable-background="new 0 0 27 27" xml:space="preserve">
<g id="Background_1_">
</g>
<g id="Footer">
</g>
<g id="Structure">
	<g>
		<rect y="0" fill="#1A325D" width="27" height="27"/>
		<g>
			<path fill="#475EA3" d="M5.7,23.2c-0.4,0-0.8-0.1-1-0.4c-0.3-0.3-0.4-0.6-0.4-1c0,0,0-0.1,0-0.3c0-0.2,0.1-0.4,0.1-0.7
				c0.1-0.3,0.2-0.6,0.4-1c0.2-0.4,0.4-0.8,0.7-1.2c0.2-0.2,0.4-0.4,0.6-0.7c0.2-0.2,0.4-0.4,0.7-0.6c0.2-0.2,0.5-0.3,0.7-0.5
				s0.5-0.3,0.8-0.4C8.6,16.2,9,16.1,9.4,16s0.8-0.2,1.3-0.3s0.9-0.1,1.4-0.2s1-0.1,1.5-0.1c0.5,0,1,0,1.5,0.1
				c0.5,0,0.9,0.1,1.4,0.2s0.9,0.2,1.3,0.3s0.8,0.3,1.1,0.4c0.3,0.1,0.6,0.3,0.8,0.4s0.5,0.3,0.7,0.5s0.5,0.4,0.7,0.6
				c0.2,0.2,0.4,0.4,0.6,0.7c0.3,0.4,0.5,0.8,0.7,1.2c0.2,0.4,0.3,0.7,0.4,1c0.1,0.3,0.1,0.5,0.1,0.7c0,0.2,0,0.3,0,0.3
				c0,0.4-0.1,0.7-0.4,1c-0.3,0.3-0.6,0.4-1,0.4H5.7z M11.1,16.6c-0.7,0.1-1.4,0.3-2,0.5c-0.6,0.2-1.2,0.5-1.6,0.8
				c-0.5,0.3-0.9,0.7-1.2,1.2c-0.3,0.3-0.4,0.7-0.6,1s-0.2,0.6-0.3,0.9c-0.1,0.2-0.1,0.5-0.1,0.6s0,0.2,0,0.2c0,0.1,0,0.2,0.1,0.3
				c0.1,0.1,0.2,0.1,0.4,0.1h15.6c0.1,0,0.2,0,0.3-0.1c0.1-0.1,0.1-0.2,0.1-0.3c0,0,0-0.1,0-0.2c0-0.2-0.1-0.4-0.1-0.6
				c-0.1-0.3-0.2-0.5-0.3-0.9s-0.3-0.6-0.6-1c-0.3-0.4-0.7-0.8-1.2-1.2c-0.5-0.3-1-0.6-1.6-0.8c-0.6-0.2-1.3-0.4-2-0.5
				c-0.7-0.1-1.5-0.2-2.4-0.2S11.9,16.5,11.1,16.6z M11.4,14.1c-0.6-0.3-1.2-0.7-1.7-1.1s-0.9-1.1-1.1-1.7c-0.3-0.6-0.4-1.3-0.4-2.1
				c0-0.7,0.1-1.4,0.4-2.1c0.3-0.6,0.7-1.2,1.1-1.7s1.1-0.9,1.7-1.1c0.6-0.3,1.3-0.4,2.1-0.4c0.7,0,1.4,0.1,2.1,0.4
				c0.6,0.3,1.2,0.7,1.7,1.1s0.9,1.1,1.1,1.7c0.3,0.6,0.4,1.3,0.4,2.1c0,0.7-0.1,1.4-0.4,2.1c-0.3,0.6-0.7,1.2-1.1,1.7
				s-1.1,0.9-1.7,1.1c-0.6,0.3-1.3,0.4-2.1,0.4C12.8,14.5,12.1,14.3,11.4,14.1z M11.8,5.1c-0.5,0.2-1,0.5-1.4,0.9
				C10,6.4,9.7,6.9,9.5,7.4C9.2,8,9.1,8.5,9.1,9.1c0,0.6,0.1,1.2,0.3,1.7c0.2,0.5,0.5,1,0.9,1.4c0.4,0.4,0.9,0.7,1.4,0.9
				c0.5,0.2,1.1,0.3,1.7,0.3s1.2-0.1,1.7-0.3c0.5-0.2,1-0.5,1.4-0.9c0.4-0.4,0.7-0.9,0.9-1.4c0.2-0.5,0.3-1.1,0.3-1.7
				c0-0.6-0.1-1.2-0.3-1.7c-0.2-0.5-0.5-1-0.9-1.4c-0.4-0.4-0.9-0.7-1.4-0.9c-0.5-0.2-1.1-0.3-1.7-0.3S12.3,4.9,11.8,5.1z"/>
		</g>
	</g>
</g>
<g id="Content">
	<g id="Logo">
	</g>
</g>
<g id="Hero">
</g>
<g id="Header">
</g>
<g id="Grid" display="none" opacity="0.16">
</g>
<g id="Slices">
</g>
<g id="Mask">
</g>
<g id="Device_x2F_browser_chrome">
</g>
</svg>
