<?xml version="1.0" encoding="UTF-8"?>
<svg width="18px" height="19px" viewBox="0 0 18 19" version="1.1" xmlns="http://www.w3.org/2000/svg" xmlns:xlink="http://www.w3.org/1999/xlink">
    <!-- Generator: Sketch 44.1 (41455) - http://www.bohemiancoding.com/sketch -->
    <title>Shape</title>
    <desc>Created with Sketch.</desc>
    <defs></defs>
    <g id="Mobile-Screens" stroke="none" stroke-width="1" fill="none" fill-rule="evenodd">
        <g id="Add-RSVP" transform="translate(-284.000000, -88.000000)" fill-rule="nonzero" fill="#B0B0B0">
            <g id="np_close_1014242_000000" transform="translate(284.000000, 88.000000)">
                <path d="M17.4845846,16.4180925 L10.5444911,9.50012051 L17.4845846,2.56002701 C17.8751383,2.12627116 17.8751383,1.4536026 17.4625584,1.06391635 C17.2456805,0.847038431 16.9635657,0.73859947 16.6602836,0.73859947 C16.3781688,0.73859947 16.1180888,0.869064553 15.9232457,1.06391635 L9.00440624,7.9818883 L1.86955637,0.824916883 C1.65267845,0.608038961 1.37056365,0.4996 1.06728156,0.4996 C0.785166763,0.4996 0.525086759,0.630065083 0.330243634,0.824916883 C0.135391834,1.0417948 0.00492675117,1.32390961 0.026961548,1.60602441 C0.026961548,1.88813921 0.157426631,2.14821921 0.352278431,2.34306234 L7.4871283,9.50003376 L0.330156883,16.6570052 C0.113278961,16.8738831 0.00484,17.1559979 0.00484,17.45928 C0.00484,17.7413948 0.135305083,18.0014748 0.330156883,18.1963179 C0.481802263,18.326783 0.720710644,18.4996 1.08922961,18.4996 C1.47978337,18.4996 1.71782858,18.3259285 1.87033713,18.1963179 L9.02730855,11.0393465 L15.9446299,17.958186 C16.0962752,18.1098313 16.3351836,18.261468 16.7257374,18.261468 C17.1162912,18.261468 17.3543364,18.0877965 17.5068449,17.958186 C17.7237228,17.741308 17.8321618,17.4591932 17.8321618,17.1559111 C17.8101357,16.8737963 17.7016967,16.6137163 17.4848101,16.4180274 L17.4845846,16.4180925 Z" id="Shape"></path>
            </g>
        </g>
    </g>
</svg>